<?xml version="1.0" encoding="utf-8"?>
<!-- Generator: Adobe Illustrator 21.0.0, SVG Export Plug-In . SVG Version: 6.00 Build 0)  -->
<svg version="1.1" id="Ebene_1" xmlns="http://www.w3.org/2000/svg" xmlns:xlink="http://www.w3.org/1999/xlink" x="0px" y="0px"
	 viewBox="0 0 480 448" style="enable-background:new 0 0 480 448;" xml:space="preserve">
<style type="text/css">
	.st0{fill:#3C3C3C;}
	.st1{fill:#3C3C3C;stroke:#3C3C3C;stroke-width:17;stroke-miterlimit:10;}
</style>
<g>
	<g>
		<path class="st0" d="M419.9,118.9c-93.3-0.1-186.5-0.2-279.8-0.1c-26.6,0-53.3,0.1-79.9,0.1c-10.6,0-16.8,8.3-18,18
			C33,212.5,23.9,288.1,14.8,363.6c-2.6,21.5-5.2,42.9-7.7,64.4c-1.2,9.7,9.2,18,18,18c24.2,0,48.4,0,72.6,0c38.6,0,77.2,0,115.7,0
			c14.4,0,28.8,0,43.2,0c36.9,0,73.8,0,110.7,0c28.7,0,57.5,0.5,86.2,0c0.5,0,1,0,1.4,0c8.9,0,19.2-8.3,18-18
			c-9.1-75.6-18.2-151.1-27.3-226.7c-2.6-21.5-5.2-42.9-7.7-64.4C436.7,127.6,430.4,118.5,419.9,118.9c-8.8,0.4-19.2,8-18,18
			c9.1,75.6,18.2,151.1,27.3,226.7c2.6,21.5,5.2,42.9,7.7,64.4c6-6,12-12,18-18c-24.2,0-48.4,0-72.6,0c-38.6,0-77.2,0-115.7,0
			c-14.4,0-28.8,0-43.2,0c-36.9,0-73.8,0-110.7,0c-28.7,0-57.5-0.9-86.2,0c-0.5,0-1,0-1.4,0c6,6,12,12,18,18
			c9.1-75.6,18.2-151.1,27.3-226.7c2.6-21.5,5.2-42.9,7.7-64.4c-6,6-12,12-18,18c93.3-0.1,186.5-0.2,279.8-0.1
			c26.6,0,53.3,0.1,79.9,0.1c9.4,0,18.4-8.3,18-18C437.4,127.2,430,118.9,419.9,118.9z"/>
	</g>
</g>
<path class="st1" d="M141.4,165h0.3c2.4-37.4,13.7-72,32-97.8c18.5-26.1,42-40.5,66.2-40.5s47.7,14.4,66.2,40.5
	c18.3,25.9,29.6,60.4,32,97.8h0.1v10.5h14.9l-0.2-5.1c-1.7-41-13.7-79.2-33.8-107.6c-21-29.7-49.2-46.1-79.3-46.1
	s-58.3,16.4-79.3,46.1c-20.1,28.4-32.1,66.6-33.8,107.6l-0.2,5.1h14.7V165z"/>
</svg>
